<?xml version="1.0" encoding="utf-8"?>
<!-- Generator: Adobe Illustrator 24.1.3, SVG Export Plug-In . SVG Version: 6.00 Build 0)  -->
<svg version="1.1" xmlns="http://www.w3.org/2000/svg" xmlns:xlink="http://www.w3.org/1999/xlink" x="0px" y="0px"
	 viewBox="0 0 880 572" enable-background="new 0 0 880 572" xml:space="preserve">
<g id="GoogleLogo_x5F_FullColor_x5F_rgb_21_">
	<g id="_x31_07x34px">
	</g>
	<path fill="#FFFFFF" stroke="#7D7978" stroke-width="2" stroke-miterlimit="10" d="M611.75,524.69H260.69
		c-31.14,0-56.38-25.24-56.38-56.38l0-363.39c0-31.14,25.24-56.38,56.38-56.38l351.06,0c31.14,0,56.38,25.24,56.38,56.38l0,363.39
		C668.13,499.45,642.89,524.69,611.75,524.69z"/>
	<path fill="#34A853" d="M501.23,276.27c-35.18,35.17-92.42,35.17-127.6,0.01l0.77-0.78l13-13c0.44,0.44,0.86,0.86,1.31,1.28
		c0.44,0.41,0.88,0.82,1.33,1.22c0.89,0.81,1.8,1.6,2.73,2.35c0.46,0.37,0.92,0.75,1.39,1.11c2.82,2.18,5.77,4.11,8.82,5.82
		c0.62,0.35,1.25,0.69,1.88,1.01c0.62,0.32,1.24,0.63,1.86,0.92c0.27,0.13,0.54,0.27,0.81,0.39c0.52,0.24,1.05,0.48,1.58,0.71
		c1.39,0.61,2.78,1.16,4.19,1.67c0.71,0.25,1.41,0.5,2.13,0.73c0.54,0.17,1.07,0.34,1.62,0.5c0.25,0.09,0.5,0.16,0.75,0.22
		c0.65,0.19,1.29,0.37,1.94,0.53c0.13,0.03,0.25,0.06,0.39,0.1c0.59,0.15,1.19,0.29,1.78,0.42c0.49,0.11,0.98,0.22,1.46,0.31
		c0.07,0.01,0.12,0.03,0.19,0.04c0.1,0.02,0.18,0.03,0.27,0.05c0.07,0.01,0.14,0.03,0.2,0.05c0.19,0.03,0.39,0.07,0.57,0.1
		c0.17,0.03,0.34,0.06,0.51,0.08c0.05,0.01,0.12,0.03,0.18,0.04c0.34,0.06,0.67,0.12,1.01,0.16c0.65,0.11,1.31,0.21,1.98,0.29
		c0.2,0.03,0.39,0.05,0.59,0.07c0.54,0.07,1.08,0.13,1.62,0.18c0.18,0.02,0.37,0.04,0.56,0.05c0.73,0.07,1.47,0.12,2.21,0.16
		c0.5,0.03,1.02,0.05,1.53,0.06c0.2,0.02,0.41,0.03,0.61,0.02c0.66,0.03,1.31,0.04,1.97,0.04c2.19,0,4.38-0.1,6.56-0.3
		c0.1-0.01,0.18-0.02,0.28-0.03c0.3-0.03,0.61-0.05,0.91-0.09c0.82-0.09,1.65-0.19,2.47-0.31c0.47-0.06,0.94-0.14,1.41-0.22
		c0.1-0.01,0.18-0.02,0.26-0.03c0.56-0.1,1.11-0.2,1.66-0.31c2.24-0.42,4.45-0.97,6.63-1.61c0.56-0.16,1.11-0.33,1.67-0.51
		c1.07-0.35,2.14-0.73,3.22-1.13c0.54-0.2,1.09-0.42,1.64-0.64c0.64-0.26,1.26-0.52,1.89-0.8c0.27-0.12,0.54-0.24,0.83-0.37
		c0.37-0.17,0.75-0.34,1.12-0.52c0.58-0.27,1.16-0.56,1.73-0.86c0.18-0.08,0.35-0.18,0.52-0.27c0.12-0.05,0.24-0.11,0.35-0.18
		c0.44-0.24,0.88-0.48,1.33-0.72c2.04-1.14,4.04-2.38,5.98-3.74c0.12-0.09,0.26-0.18,0.39-0.29c0.13-0.08,0.27-0.18,0.39-0.27
		c0.18-0.13,0.35-0.25,0.53-0.38c0.04-0.02,0.07-0.05,0.1-0.07c0.01,0,0.01,0,0.01,0c0.36-0.27,0.72-0.54,1.07-0.81
		c0.03-0.01,0.06-0.05,0.09-0.07c0.1-0.05,0.18-0.12,0.27-0.2c2.35-1.81,4.6-3.79,6.76-5.95L501.23,276.27z"/>
	<linearGradient id="SVGID_1_" gradientUnits="userSpaceOnUse" x1="458.162" y1="284.0781" x2="386.2093" y2="212.1254">
		<stop  offset="0.1435" style="stop-color:#472421;stop-opacity:0.15"/>
		<stop  offset="0.6345" style="stop-color:#472421;stop-opacity:0"/>
	</linearGradient>
	<path fill="url(#SVGID_1_)" d="M488.31,263.35c-28.05,28.06-73.69,28.06-101.76,0l0.85-0.85c0.44,0.44,0.86,0.86,1.31,1.28
		c0.44,0.41,0.88,0.82,1.33,1.22c0.89,0.81,1.8,1.6,2.73,2.35c0.46,0.37,0.92,0.75,1.39,1.11c2.82,2.18,5.77,4.11,8.82,5.82
		c0.62,0.35,1.25,0.69,1.88,1.01c0.62,0.32,1.24,0.63,1.86,0.92c0.27,0.13,0.54,0.27,0.81,0.39c0.52,0.24,1.05,0.48,1.58,0.71
		c1.39,0.61,2.78,1.16,4.19,1.67c0.71,0.25,1.41,0.5,2.13,0.73c0.54,0.17,1.07,0.34,1.62,0.5c0.25,0.09,0.5,0.16,0.75,0.22
		c0.65,0.19,1.29,0.37,1.94,0.53c0.13,0.03,0.25,0.06,0.39,0.1c0.59,0.15,1.19,0.29,1.78,0.42c0.49,0.11,0.98,0.22,1.46,0.31
		c0.07,0.01,0.12,0.03,0.19,0.04c0.1,0.02,0.18,0.03,0.27,0.05c0.07,0.01,0.14,0.03,0.2,0.05c0.19,0.03,0.39,0.07,0.57,0.1
		c0.17,0.03,0.34,0.06,0.51,0.08c0.05,0.01,0.12,0.03,0.18,0.04c0.34,0.06,0.67,0.12,1.01,0.16c0.65,0.11,1.31,0.21,1.98,0.29
		c0.2,0.03,0.39,0.05,0.59,0.07c0.54,0.07,1.08,0.13,1.62,0.18c0.18,0.02,0.37,0.04,0.56,0.05c0.73,0.07,1.47,0.12,2.21,0.16
		c0.5,0.03,1.02,0.05,1.53,0.06c0.2,0.02,0.41,0.03,0.61,0.02c0.66,0.03,1.31,0.04,1.97,0.04c2.19,0,4.38-0.1,6.56-0.3
		c0.1-0.01,0.18-0.02,0.28-0.03c0.3-0.03,0.61-0.05,0.91-0.09c0.82-0.09,1.65-0.19,2.47-0.31c0.47-0.06,0.94-0.14,1.41-0.22
		c0.1-0.01,0.18-0.02,0.26-0.03c0.56-0.1,1.11-0.2,1.66-0.31c2.24-0.42,4.45-0.97,6.63-1.61c0.56-0.16,1.11-0.33,1.67-0.51
		c1.07-0.35,2.14-0.73,3.22-1.13c0.54-0.2,1.09-0.42,1.64-0.64c0.64-0.26,1.26-0.52,1.89-0.8c0.27-0.12,0.54-0.24,0.83-0.37
		c0.37-0.17,0.75-0.34,1.12-0.52c0.58-0.27,1.16-0.56,1.73-0.86c0.18-0.08,0.35-0.18,0.52-0.27c0.12-0.05,0.24-0.11,0.35-0.18
		c0.44-0.24,0.88-0.48,1.33-0.72c2.04-1.14,4.04-2.38,5.98-3.74c0.12-0.09,0.26-0.18,0.39-0.29c0.13-0.08,0.27-0.18,0.39-0.27
		c0.18-0.13,0.35-0.25,0.53-0.38c0.04-0.02,0.07-0.05,0.1-0.07c0.01,0,0.01,0,0.01,0c0.36-0.27,0.72-0.54,1.07-0.81
		c0.03-0.01,0.06-0.05,0.09-0.07c0.1-0.05,0.18-0.12,0.27-0.2c2.35-1.81,4.6-3.79,6.76-5.95L488.31,263.35z"/>
	<linearGradient id="SVGID_2_" gradientUnits="userSpaceOnUse" x1="464.5209" y1="300.6985" x2="408.3677" y2="250.1606">
		<stop  offset="0.3046" style="stop-color:#FFFFFF;stop-opacity:0.3"/>
		<stop  offset="0.4649" style="stop-color:#C9E5CE;stop-opacity:0.2309"/>
		<stop  offset="0.8304" style="stop-color:#41A555;stop-opacity:0.0732"/>
		<stop  offset="1" style="stop-color:#00861A;stop-opacity:0"/>
	</linearGradient>
	<path fill="url(#SVGID_2_)" d="M501.23,276.27c-35.18,35.17-92.42,35.17-127.6,0.01l0.78-0.78c0.55,0.55,1.09,1.07,1.64,1.61
		c0.55,0.52,1.11,1.04,1.68,1.55c1.12,1.01,2.26,2,3.43,2.95c0.58,0.47,1.17,0.95,1.76,1.4c3.56,2.74,7.27,5.18,11.12,7.33
		c0.78,0.44,1.57,0.86,2.36,1.26c0.78,0.4,1.56,0.8,2.35,1.17c0.33,0.17,0.67,0.33,1.02,0.48c0.64,0.31,1.32,0.61,1.98,0.9
		c1.74,0.75,3.5,1.45,5.29,2.1c0.89,0.32,1.78,0.63,2.69,0.92c0.67,0.21,1.35,0.43,2.03,0.63c0.32,0.11,0.64,0.21,0.96,0.29
		c0.81,0.23,1.63,0.46,2.45,0.66c0.16,0.04,0.33,0.08,0.49,0.12c0.75,0.19,1.5,0.37,2.24,0.54c0.7,0.14,1.38,0.29,2.08,0.44
		c0.12,0.02,0.22,0.04,0.34,0.05c0.08,0.03,0.18,0.05,0.26,0.06c0.24,0.04,0.48,0.09,0.72,0.13c0.21,0.05,0.43,0.09,0.63,0.11
		c0.5,0.1,1.01,0.18,1.5,0.26c0.83,0.13,1.65,0.26,2.49,0.36c0.25,0.04,0.49,0.07,0.74,0.1c0.69,0.08,1.37,0.16,2.05,0.22
		c0.22,0.02,0.46,0.04,0.7,0.07c0.92,0.08,1.85,0.15,2.79,0.2c0.63,0.04,1.29,0.07,1.92,0.08c0.26,0.03,0.52,0.04,0.77,0.03
		c0.83,0.04,1.65,0.04,2.48,0.04c2.76,0,5.51-0.12,8.26-0.38c0.12-0.01,0.22-0.03,0.33-0.03c0.08-0.01,0.16-0.02,0.24-0.02
		c0.31-0.04,0.62-0.07,0.92-0.11c1.05-0.11,2.08-0.24,3.12-0.39c0.59-0.08,1.2-0.18,1.79-0.28c0.12-0.02,0.22-0.03,0.33-0.05
		c0.7-0.12,1.39-0.25,2.09-0.38c2.81-0.54,5.59-1.22,8.35-2.03c0.71-0.21,1.4-0.43,2.1-0.65c1.36-0.44,2.71-0.91,4.06-1.42
		c0.68-0.26,1.38-0.53,2.06-0.8c0.8-0.33,1.59-0.68,2.39-1.02c0.34-0.15,0.68-0.3,1.04-0.47c0.47-0.21,0.95-0.43,1.42-0.66
		c0.73-0.34,1.47-0.7,2.18-1.07c0.22-0.11,0.44-0.22,0.66-0.35c0.14-0.06,0.29-0.13,0.44-0.22c0.55-0.29,1.11-0.6,1.66-0.9
		c2.57-1.43,5.09-3,7.55-4.72c0.15-0.1,0.31-0.22,0.48-0.35c0.16-0.11,0.33-0.22,0.49-0.35c0.22-0.16,0.46-0.31,0.68-0.48
		c0.04-0.02,0.08-0.05,0.12-0.09c0.01,0,0.01,0,0.01,0c0.46-0.33,0.91-0.68,1.35-1.02c0.04-0.03,0.08-0.06,0.12-0.1
		c0.12-0.06,0.22-0.15,0.33-0.24c2.95-2.28,5.8-4.78,8.51-7.5L501.23,276.27z"/>
	<g>
		<path fill="#F8F9FA" d="M508.15,212.02c0,0.44,0,0.88-0.01,1.32c0,0.34-0.01,0.67-0.02,1c-0.01,0.44-0.02,0.88-0.05,1.32
			c-0.01,0.22-0.02,0.45-0.03,0.67c-0.04,0.67-0.08,1.34-0.14,2.01c-0.04,0.53-0.09,1.07-0.15,1.61c0,0.02,0,0.04-0.01,0.07
			c-0.03,0.27-0.06,0.55-0.09,0.82c-0.06,0.52-0.12,1.05-0.2,1.57c-0.06,0.4-0.11,0.8-0.19,1.2c-0.03,0.23-0.07,0.47-0.11,0.69
			c-0.03,0.19-0.06,0.37-0.09,0.56c-0.04,0.21-0.07,0.41-0.11,0.61c-0.04,0.21-0.08,0.41-0.11,0.62c-0.07,0.4-0.16,0.82-0.25,1.22
			c-0.04,0.21-0.08,0.4-0.13,0.61c-0.02,0.11-0.05,0.22-0.08,0.33c-0.02,0.09-0.04,0.19-0.07,0.28c-0.1,0.45-0.21,0.9-0.33,1.36
			c-0.06,0.22-0.11,0.46-0.18,0.68c-0.01,0.07-0.03,0.13-0.05,0.2c-0.03,0.11-0.07,0.22-0.09,0.34c-0.09,0.36-0.19,0.7-0.29,1.05
			c-3.2,11.11-9.17,21.59-17.92,30.33c-2.16,2.16-4.41,4.14-6.76,5.95c-0.08,0.07-0.17,0.14-0.26,0.2
			c-0.03,0.03-0.06,0.06-0.09,0.07c-0.35,0.27-0.7,0.54-1.07,0.81c0,0,0,0-0.01,0c-0.03,0.03-0.06,0.06-0.09,0.07
			c-0.18,0.13-0.36,0.25-0.53,0.38c-0.13,0.09-0.26,0.19-0.39,0.27c-0.13,0.1-0.26,0.2-0.38,0.28c-1.95,1.36-3.94,2.61-5.99,3.74
			c-0.44,0.24-0.88,0.49-1.32,0.72c-0.11,0.07-0.23,0.12-0.35,0.18c-0.18,0.09-0.35,0.19-0.52,0.27c-0.57,0.3-1.15,0.58-1.73,0.85
			c-0.37,0.19-0.75,0.36-1.12,0.52c-0.28,0.13-0.55,0.25-0.82,0.37c-0.63,0.28-1.26,0.54-1.89,0.81c-0.54,0.22-1.1,0.43-1.64,0.64
			c-1.07,0.4-2.14,0.78-3.21,1.12c-0.55,0.18-1.11,0.35-1.67,0.52c-2.19,0.65-4.4,1.19-6.63,1.61c-0.55,0.1-1.11,0.21-1.66,0.3
			c-0.08,0.02-0.17,0.03-0.26,0.04c-0.47,0.08-0.95,0.16-1.41,0.22c-0.82,0.12-1.65,0.22-2.47,0.31c-0.3,0.04-0.61,0.07-0.91,0.09
			c-0.09,0.01-0.19,0.02-0.28,0.03c-2.18,0.21-4.37,0.3-6.56,0.3c-0.66,0-1.31-0.01-1.97-0.04c-0.2,0.01-0.4,0-0.61-0.02
			c-0.51-0.01-1.02-0.04-1.53-0.07c-0.74-0.04-1.48-0.09-2.21-0.16c-0.19-0.02-0.37-0.04-0.55-0.06c-0.54-0.05-1.09-0.11-1.63-0.18
			c-0.2-0.02-0.39-0.05-0.59-0.07c-0.67-0.07-1.32-0.18-1.98-0.28c-0.34-0.05-0.67-0.1-1.01-0.17c-0.06-0.01-0.12-0.03-0.18-0.04
			c-0.17-0.02-0.34-0.05-0.51-0.08c-0.19-0.03-0.38-0.07-0.57-0.1c-0.07-0.01-0.14-0.03-0.21-0.05c-0.09-0.01-0.18-0.03-0.27-0.05
			c-0.07-0.01-0.12-0.03-0.19-0.04c-0.49-0.09-0.97-0.2-1.46-0.31c-0.59-0.13-1.19-0.27-1.78-0.42c-0.14-0.04-0.26-0.07-0.39-0.1
			c-0.65-0.16-1.29-0.34-1.94-0.52c-0.25-0.07-0.51-0.14-0.76-0.22c-0.54-0.16-1.08-0.33-1.61-0.5c-0.72-0.23-1.42-0.48-2.14-0.73
			c-1.42-0.51-2.81-1.07-4.2-1.67c-0.52-0.23-1.06-0.47-1.57-0.71c-0.27-0.12-0.54-0.25-0.81-0.38c-0.63-0.29-1.25-0.61-1.86-0.93
			c-0.63-0.32-1.26-0.66-1.87-1c-3.05-1.71-6.01-3.65-8.83-5.82c-0.47-0.37-0.94-0.74-1.4-1.12c-0.93-0.75-1.84-1.54-2.73-2.34
			c-0.45-0.4-0.89-0.82-1.33-1.23c-0.44-0.42-0.86-0.83-1.3-1.27l-0.01-0.01c-2.21-2.21-4.24-4.54-6.11-6.95
			c-1.02-1.34-2-2.72-2.92-4.11c0,0-0.01-0.01-0.01-0.02c-0.97-1.46-1.87-2.96-2.73-4.48c-4.52-8.12-7.32-16.95-8.4-25.95
			c-0.07-0.56-0.13-1.12-0.19-1.68c-0.22-2.43-0.34-4.86-0.32-7.29c0-0.56,0.01-1.12,0.03-1.68c0.02-0.56,0.05-1.13,0.08-1.7
			s0.07-1.12,0.11-1.68c0.05-0.56,0.08-1.12,0.14-1.68c0.06-0.56,0.12-1.12,0.2-1.68c0.14-1.12,0.3-2.23,0.5-3.34
			c0.12-0.77,0.26-1.53,0.43-2.28c0.07-0.33,0.14-0.66,0.22-0.98c0.01-0.07,0.01-0.13,0.04-0.2c0.11-0.51,0.23-1,0.37-1.51
			c0.12-0.55,0.27-1.1,0.42-1.63c0.29-1.1,0.62-2.18,0.97-3.26c0.23-0.75,0.5-1.49,0.77-2.23c0.11-0.33,0.24-0.65,0.36-0.98
			c0.18-0.46,0.36-0.92,0.54-1.37c0.11-0.29,0.23-0.59,0.36-0.87c0.13-0.31,0.26-0.62,0.4-0.92c0.22-0.52,0.46-1.05,0.7-1.56
			c0.24-0.52,0.49-1.04,0.75-1.55c0.29-0.6,0.58-1.19,0.91-1.77c0.22-0.43,0.46-0.85,0.69-1.28c0.56-1.01,1.15-2.01,1.77-2.99
			c0.62-0.98,1.27-1.95,1.93-2.91c0.34-0.48,0.67-0.96,1.02-1.42c1.04-1.41,2.14-2.78,3.28-4.13c0.01-0.01,0.01-0.02,0.03-0.03
			c1.17-1.35,2.4-2.67,3.67-3.95c0.44-0.45,0.86-0.86,1.3-1.28c0.44-0.42,0.88-0.83,1.33-1.23c0.89-0.81,1.8-1.59,2.73-2.34
			c0.46-0.37,0.93-0.76,1.4-1.12c2.82-2.17,5.76-4.11,8.82-5.82c2.03-1.13,4.11-2.16,6.22-3.06c1.06-0.46,2.13-0.89,3.2-1.29
			c1.08-0.4,2.16-0.78,3.24-1.13c0.54-0.18,1.09-0.35,1.63-0.51c13.15-3.88,27.18-3.88,40.31,0c0.54,0.16,1.1,0.33,1.64,0.51
			c1.1,0.36,2.16,0.73,3.24,1.13c9.12,3.43,17.67,8.82,24.99,16.15c0.86,0.85,1.69,1.72,2.48,2.6c0.81,0.89,1.58,1.79,2.32,2.71
			c0.38,0.46,0.75,0.92,1.12,1.39c0.43,0.56,0.85,1.13,1.26,1.71c0.31,0.4,0.59,0.81,0.87,1.22c0.35,0.49,0.67,0.97,0.99,1.46
			c0.62,0.94,1.22,1.88,1.79,2.85c1.21,2.05,2.31,4.15,3.31,6.29c0.24,0.52,0.48,1.05,0.7,1.58c0.42,0.97,0.82,1.96,1.21,2.95
			c0.2,0.53,0.39,1.07,0.58,1.6c0.14,0.4,0.28,0.81,0.42,1.21c0.4,1.23,0.78,2.45,1.12,3.69c0.14,0.52,0.29,1.06,0.41,1.6
			c0.28,1.1,0.52,2.2,0.74,3.3c0.1,0.54,0.21,1.09,0.3,1.63c0.01,0.02,0.01,0.04,0.01,0.06c0.1,0.55,0.19,1.1,0.27,1.64
			c0.08,0.56,0.16,1.12,0.22,1.68c0.08,0.56,0.14,1.12,0.2,1.68c0.05,0.56,0.09,1.12,0.14,1.68c0.05,0.55,0.08,1.12,0.11,1.68
			s0.06,1.13,0.08,1.7C508.14,210.89,508.15,211.45,508.15,212.02z"/>
		<g>
			<polygon fill="#34A853" points="484.77,194.61 447.4,232 433.77,245.62 432.12,247.28 432.05,247.22 397.03,212.2 412.3,196.92 
				432.05,216.67 469.44,179.29 			"/>
			
				<rect x="424.51" y="197.9" transform="matrix(0.7071 -0.7071 0.7071 0.7071 -8.0523 376.9067)" opacity="0.2" fill="#FFFFFF" width="52.86" height="0.55"/>
			
				<rect x="394.05" y="204.48" transform="matrix(0.7071 -0.7071 0.7071 0.7071 -26.2063 346.2483)" opacity="0.2" fill="#FFFFFF" width="21.61" height="0.55"/>
			
				<rect x="408.4" y="207.11" transform="matrix(0.7071 0.7071 -0.7071 0.7071 270.3508 -237.9193)" opacity="0.2" fill="#FFFFFF" width="27.93" height="0.55"/>
			
				<linearGradient id="SVGID_3_" gradientUnits="userSpaceOnUse" x1="467.0073" y1="184.8353" x2="482.3274" y2="184.8353" gradientTransform="matrix(0.9872 -0.0132 -0.0124 0.9873 10.581 10.9098)">
				<stop  offset="0" style="stop-color:#FFFFFF;stop-opacity:0.2"/>
				<stop  offset="0.2241" style="stop-color:#FDFCFC;stop-opacity:0.1933"/>
				<stop  offset="0.366" style="stop-color:#F6F4F4;stop-opacity:0.189"/>
				<stop  offset="0.4851" style="stop-color:#E9E5E5;stop-opacity:0.1854"/>
				<stop  offset="0.5915" style="stop-color:#D8D1D0;stop-opacity:0.1823"/>
				<stop  offset="0.6896" style="stop-color:#C2B6B5;stop-opacity:0.1793"/>
				<stop  offset="0.7816" style="stop-color:#A69694;stop-opacity:0.1766"/>
				<stop  offset="0.8687" style="stop-color:#866F6D;stop-opacity:0.1739"/>
				<stop  offset="0.9499" style="stop-color:#614340;stop-opacity:0.1715"/>
				<stop  offset="1" style="stop-color:#472421;stop-opacity:0.17"/>
			</linearGradient>
			<polygon fill="url(#SVGID_3_)" points="483.99,194.61 469.44,180.07 469.82,179.68 484.38,194.22 			"/>
			
				<linearGradient id="SVGID_4_" gradientUnits="userSpaceOnUse" x1="397.3897" y1="229.6834" x2="432.4745" y2="229.6834" gradientTransform="matrix(1 -2.465952e-04 2.465952e-04 1 -0.031 0.1598)">
				<stop  offset="0" style="stop-color:#FFFFFF;stop-opacity:0.2"/>
				<stop  offset="0.2241" style="stop-color:#FDFCFC;stop-opacity:0.1933"/>
				<stop  offset="0.366" style="stop-color:#F6F4F4;stop-opacity:0.189"/>
				<stop  offset="0.4851" style="stop-color:#E9E5E5;stop-opacity:0.1854"/>
				<stop  offset="0.5915" style="stop-color:#D8D1D0;stop-opacity:0.1823"/>
				<stop  offset="0.6896" style="stop-color:#C2B6B5;stop-opacity:0.1793"/>
				<stop  offset="0.7816" style="stop-color:#A69694;stop-opacity:0.1766"/>
				<stop  offset="0.8687" style="stop-color:#866F6D;stop-opacity:0.1739"/>
				<stop  offset="0.9499" style="stop-color:#614340;stop-opacity:0.1715"/>
				<stop  offset="1" style="stop-color:#472421;stop-opacity:0.17"/>
			</linearGradient>
			<polygon fill="url(#SVGID_4_)" points="432.12,247.28 397.41,212.59 397.8,212.2 432.5,246.89 			"/>
			
				<rect x="421.48" y="220.28" transform="matrix(0.707 -0.7072 0.7072 0.707 -21.6611 388.828)" opacity="0.17" fill="#472421" width="73.92" height="0.55"/>
		</g>
		<linearGradient id="SVGID_5_" gradientUnits="userSpaceOnUse" x1="411.0885" y1="122.3424" x2="450.6001" y2="161.854">
			<stop  offset="0.4811" style="stop-color:#472421;stop-opacity:0.15"/>
			<stop  offset="1" style="stop-color:#FFCECC;stop-opacity:0"/>
		</linearGradient>
		<path fill="url(#SVGID_5_)" d="M501.21,148.67l-0.77,0.77c-0.55-0.55-1.09-1.07-1.64-1.6c-0.55-0.53-1.11-1.05-1.67-1.55
			c-1.13-1.01-2.27-2-3.44-2.95c-0.58-0.47-1.17-0.95-1.76-1.4c-3.55-2.74-7.27-5.18-11.11-7.33c-0.79-0.44-1.57-0.86-2.37-1.26
			c-0.78-0.4-1.55-0.8-2.35-1.17c-0.33-0.16-0.67-0.33-1.01-0.48c-0.65-0.3-1.32-0.6-1.98-0.9c-1.75-0.75-3.51-1.45-5.29-2.1
			c-0.9-0.31-1.79-0.63-2.7-0.92c-0.67-0.21-1.34-0.42-2.03-0.63c-0.32-0.11-0.63-0.2-0.96-0.29c-0.81-0.23-1.63-0.46-2.44-0.66
			c-0.17-0.04-0.33-0.08-0.5-0.13c-0.74-0.19-1.5-0.37-2.24-0.54c-0.7-0.13-1.38-0.29-2.08-0.43c-0.12-0.03-0.22-0.05-0.34-0.06
			c-0.08-0.03-0.18-0.04-0.26-0.06c-0.23-0.04-0.48-0.09-0.72-0.13c-0.21-0.04-0.42-0.08-0.63-0.11c-0.49-0.1-1-0.18-1.5-0.26
			c-0.82-0.13-1.65-0.26-2.49-0.36c-0.24-0.04-0.49-0.07-0.74-0.09c-0.68-0.09-1.37-0.17-2.05-0.22c-0.22-0.03-0.46-0.05-0.7-0.07
			c-0.92-0.09-1.85-0.16-2.78-0.21c-0.64-0.04-1.3-0.07-1.93-0.08c-0.26-0.03-0.52-0.04-0.77-0.03c-0.82-0.04-1.65-0.04-2.47-0.04
			c-2.76,0-5.51,0.12-8.26,0.38c-0.12,0.02-0.22,0.03-0.33,0.03c-0.08,0.01-0.17,0.03-0.25,0.03c-0.3,0.04-0.62,0.06-0.92,0.1
			c-1.04,0.11-2.08,0.24-3.12,0.39c-0.59,0.08-1.19,0.18-1.78,0.29c-0.12,0.01-0.23,0.02-0.33,0.04c-0.7,0.12-1.39,0.25-2.09,0.38
			c-2.81,0.54-5.6,1.23-8.36,2.04c-0.71,0.21-1.4,0.42-2.1,0.64c-1.36,0.44-2.71,0.91-4.05,1.42c-0.69,0.26-1.38,0.53-2.07,0.8
			c-0.79,0.33-1.59,0.67-2.38,1.01c-0.35,0.16-0.69,0.31-1.05,0.47c-0.47,0.21-0.94,0.43-1.41,0.66c-0.73,0.35-1.47,0.7-2.19,1.07
			c-0.22,0.11-0.44,0.23-0.66,0.35c-0.14,0.07-0.29,0.14-0.44,0.22c-0.55,0.29-1.11,0.6-1.66,0.91c-2.57,1.43-5.08,2.99-7.54,4.71
			c-0.16,0.11-0.32,0.22-0.48,0.36c-0.17,0.1-0.33,0.22-0.5,0.34c-0.22,0.16-0.45,0.32-0.67,0.48c-0.05,0.03-0.09,0.06-0.13,0.1
			c-0.01,0-0.01,0-0.01,0c-0.46,0.33-0.91,0.67-1.35,1.01c-0.04,0.03-0.08,0.06-0.12,0.1c-0.12,0.07-0.22,0.15-0.33,0.25
			c-2.95,2.28-5.78,4.77-8.5,7.5h-0.01l-0.78-0.78v-0.01C408.8,113.51,466.03,113.49,501.21,148.67z"/>
		
			<radialGradient id="SVGID_6_" cx="440.6737" cy="1636.6697" r="184.908" gradientTransform="matrix(0.4877 0 0 0.4877 222.5203 -585.7131)" gradientUnits="userSpaceOnUse">
			<stop  offset="0" style="stop-color:#FFFFFF;stop-opacity:0.1"/>
			<stop  offset="1" style="stop-color:#FFFFFF;stop-opacity:0"/>
		</radialGradient>
		<path fill="url(#SVGID_6_)" d="M437.44,122.29c-49.8,0-90.18,40.37-90.18,90.17c0,49.81,40.38,90.18,90.18,90.18
			c49.8,0,90.17-40.37,90.17-90.18C527.61,162.67,487.23,122.29,437.44,122.29z M387.46,262.43c-2.21-2.21-4.24-4.53-6.1-6.95
			c-1.02-1.34-2-2.72-2.92-4.11c0,0-0.01-0.01-0.01-0.02c-0.96-1.46-1.87-2.95-2.72-4.47c-4.51-8.11-7.3-16.92-8.38-25.91
			c-0.06-0.56-0.13-1.12-0.18-1.67c-0.22-2.42-0.34-4.86-0.32-7.28c0-0.56,0.01-1.12,0.03-1.67c0.02-0.56,0.05-1.13,0.07-1.7
			c0.03-0.56,0.07-1.12,0.12-1.68c0.04-0.56,0.08-1.11,0.14-1.67c0.05-0.56,0.12-1.12,0.2-1.68c0.14-1.11,0.3-2.23,0.5-3.33
			c0.12-0.77,0.26-1.53,0.43-2.27c0.06-0.33,0.14-0.65,0.21-0.98c0.01-0.06,0.01-0.13,0.04-0.2c0.11-0.5,0.23-1,0.37-1.51
			c0.12-0.55,0.27-1.09,0.42-1.62c0.29-1.1,0.62-2.19,0.97-3.26c0.23-0.75,0.5-1.49,0.77-2.23c0.12-0.33,0.24-0.64,0.35-0.98
			c0.18-0.45,0.36-0.92,0.54-1.36c0.12-0.29,0.24-0.59,0.36-0.87c0.13-0.31,0.26-0.62,0.4-0.92c0.22-0.53,0.46-1.05,0.7-1.57
			c0.24-0.52,0.49-1.04,0.75-1.54c0.29-0.6,0.58-1.19,0.9-1.77c0.22-0.43,0.46-0.85,0.69-1.28c0.56-1.01,1.15-2,1.77-2.99
			c0.62-0.98,1.26-1.95,1.93-2.91c0.34-0.48,0.67-0.96,1.02-1.42c1.04-1.41,2.13-2.78,3.28-4.13c0.01-0.01,0.01-0.02,0.03-0.03
			c1.17-1.35,2.39-2.66,3.67-3.94v-0.01c0.44-0.45,0.86-0.86,1.3-1.28c0.43-0.42,0.88-0.83,1.32-1.22c0.89-0.81,1.8-1.6,2.73-2.34
			c0.45-0.37,0.92-0.76,1.39-1.11c2.82-2.17,5.76-4.11,8.81-5.81c2.03-1.13,4.11-2.15,6.21-3.06c1.06-0.45,2.12-0.89,3.19-1.29
			c1.08-0.4,2.15-0.77,3.24-1.13c0.54-0.18,1.09-0.35,1.63-0.5c13.13-3.88,27.15-3.88,40.26,0c0.54,0.16,1.1,0.33,1.64,0.5
			c1.09,0.36,2.16,0.73,3.24,1.13c9.1,3.43,17.64,8.81,24.95,16.12l0.01,0.01c0.86,0.86,1.68,1.72,2.48,2.6
			c0.81,0.89,1.58,1.79,2.32,2.71c0.39,0.45,0.75,0.92,1.11,1.38c0.43,0.56,0.86,1.13,1.26,1.7c0.31,0.4,0.59,0.8,0.87,1.22
			c0.35,0.49,0.68,0.97,1,1.46c0.62,0.94,1.22,1.88,1.79,2.84c1.21,2.05,2.31,4.15,3.3,6.28c0.24,0.52,0.48,1.05,0.71,1.58
			c0.42,0.97,0.82,1.96,1.21,2.95c0.2,0.54,0.39,1.07,0.58,1.6c0.14,0.4,0.28,0.8,0.42,1.21c0.4,1.22,0.78,2.44,1.11,3.69
			c0.14,0.52,0.29,1.05,0.41,1.6c0.28,1.1,0.52,2.2,0.74,3.3c0.1,0.54,0.2,1.09,0.3,1.63c0.01,0.01,0.01,0.03,0.01,0.05
			c0.1,0.55,0.19,1.09,0.27,1.64c0.07,0.56,0.16,1.12,0.22,1.68c0.07,0.56,0.14,1.11,0.2,1.68l0.14,1.67
			c0.05,0.56,0.08,1.11,0.11,1.68c0.03,0.56,0.06,1.13,0.07,1.7c0.02,0.55,0.03,1.11,0.03,1.67c0,0.44,0,0.88-0.01,1.32
			c0,0.33-0.01,0.66-0.02,1c-0.01,0.44-0.01,0.88-0.04,1.32c-0.01,0.23-0.02,0.45-0.03,0.68c-0.03,0.67-0.08,1.34-0.14,2
			c-0.04,0.53-0.1,1.07-0.15,1.61c0,0.02,0,0.03-0.01,0.06c-0.03,0.27-0.05,0.56-0.09,0.83c-0.06,0.52-0.12,1.05-0.2,1.57
			c-0.06,0.41-0.12,0.8-0.19,1.2c-0.03,0.23-0.07,0.47-0.12,0.69c-0.03,0.18-0.05,0.37-0.09,0.56c-0.04,0.2-0.07,0.41-0.12,0.6
			c-0.03,0.2-0.07,0.41-0.11,0.62c-0.07,0.4-0.16,0.81-0.26,1.22c-0.03,0.21-0.08,0.41-0.13,0.61c-0.02,0.11-0.05,0.22-0.07,0.33
			c-0.02,0.1-0.03,0.19-0.07,0.28c-0.1,0.45-0.2,0.9-0.33,1.36c-0.05,0.22-0.11,0.46-0.18,0.69c-0.01,0.07-0.03,0.13-0.05,0.2
			c-0.03,0.11-0.07,0.22-0.1,0.34c-0.09,0.35-0.18,0.7-0.29,1.05c-3.2,11.1-9.17,21.56-17.9,30.29c-2.15,2.15-4.41,4.13-6.75,5.94
			c-0.08,0.07-0.17,0.14-0.26,0.2c-0.03,0.03-0.05,0.06-0.09,0.07c-0.35,0.27-0.71,0.54-1.07,0.81c0,0,0,0-0.01,0
			c-0.03,0.03-0.05,0.05-0.1,0.07c-0.18,0.13-0.35,0.25-0.53,0.38c-0.13,0.1-0.26,0.19-0.39,0.27c-0.13,0.11-0.26,0.2-0.39,0.29
			c-1.94,1.36-3.94,2.6-5.97,3.73c-0.44,0.24-0.88,0.48-1.32,0.72c-0.11,0.07-0.23,0.12-0.35,0.18c-0.18,0.1-0.35,0.19-0.52,0.27
			c-0.57,0.3-1.15,0.58-1.73,0.86c-0.37,0.18-0.75,0.35-1.12,0.52c-0.29,0.13-0.56,0.25-0.83,0.37c-0.62,0.28-1.25,0.54-1.89,0.8
			c-0.54,0.22-1.09,0.43-1.64,0.64c-1.07,0.4-2.14,0.78-3.21,1.13c-0.56,0.18-1.11,0.35-1.67,0.51c-2.19,0.64-4.39,1.19-6.63,1.61
			c-0.55,0.11-1.1,0.21-1.66,0.31c-0.08,0.01-0.16,0.03-0.26,0.03c-0.47,0.08-0.94,0.16-1.41,0.22c-0.83,0.12-1.65,0.22-2.47,0.31
			c-0.3,0.03-0.61,0.06-0.91,0.09c-0.1,0.01-0.18,0.02-0.28,0.03c-2.18,0.2-4.37,0.3-6.55,0.3c-0.66,0-1.31-0.01-1.97-0.04
			c-0.2,0.01-0.4,0-0.6-0.02c-0.51-0.01-1.03-0.03-1.53-0.06c-0.74-0.04-1.48-0.1-2.21-0.16c-0.19-0.01-0.37-0.03-0.56-0.05
			c-0.54-0.05-1.08-0.11-1.62-0.18c-0.2-0.02-0.39-0.05-0.59-0.07c-0.67-0.07-1.32-0.18-1.98-0.29c-0.34-0.04-0.67-0.1-1.01-0.16
			c-0.05-0.01-0.12-0.03-0.18-0.04c-0.17-0.02-0.34-0.05-0.51-0.08c-0.18-0.03-0.38-0.07-0.57-0.1c-0.06-0.01-0.14-0.03-0.2-0.05
			c-0.1-0.01-0.18-0.03-0.27-0.05c-0.07-0.01-0.12-0.03-0.19-0.04c-0.48-0.09-0.97-0.2-1.46-0.31c-0.59-0.13-1.19-0.27-1.78-0.42
			c-0.14-0.04-0.26-0.07-0.39-0.1c-0.65-0.16-1.3-0.34-1.94-0.53c-0.25-0.06-0.5-0.14-0.75-0.22c-0.54-0.16-1.08-0.33-1.62-0.5
			c-0.72-0.23-1.42-0.48-2.13-0.73c-1.41-0.51-2.8-1.07-4.19-1.67c-0.53-0.23-1.06-0.47-1.58-0.71c-0.27-0.12-0.54-0.26-0.81-0.39
			c-0.62-0.29-1.24-0.6-1.86-0.92c-0.62-0.32-1.26-0.66-1.87-1c-3.05-1.7-5.99-3.64-8.81-5.81c-0.47-0.37-0.94-0.74-1.39-1.11
			c-0.93-0.75-1.84-1.53-2.73-2.34c-0.45-0.4-0.89-0.81-1.32-1.22C388.33,263.29,387.91,262.88,387.46,262.43L387.46,262.43z"/>
		<path fill="#E94235" d="M501.22,148.68l-13.77,13.77l-0.01-0.01c-7.32-7.32-15.87-12.71-24.98-16.14
			c-1.08-0.4-2.15-0.77-3.24-1.14c-0.54-0.18-1.1-0.35-1.65-0.5c-13.13-3.88-27.16-3.88-40.31,0c-0.54,0.16-1.09,0.33-1.63,0.5
			c-1.09,0.36-2.16,0.73-3.24,1.14c-1.07,0.4-2.13,0.84-3.19,1.29c-2.11,0.91-4.19,1.93-6.22,3.07c-3.05,1.71-6,3.64-8.82,5.82
			c-0.47,0.35-0.94,0.74-1.39,1.11c-0.93,0.75-1.84,1.54-2.73,2.35c-0.45,0.39-0.89,0.8-1.33,1.22c-0.44,0.42-0.86,0.84-1.31,1.28
			l-0.56-0.55l-0.3-0.31h-0.01l-0.4-0.41l-11.72-11.72h-0.01l-0.77-0.78v-0.01c35.17-35.17,92.4-35.18,127.57,0L501.22,148.68z"/>
		<path fill="#FABB05" d="M366.75,210.34c-0.02,0.55-0.03,1.11-0.03,1.67c-0.02,2.43,0.1,4.87,0.32,7.29
			c0.05,0.55,0.12,1.11,0.18,1.67c1.08,9,3.88,17.82,8.4,25.95c0.86,1.52,1.77,3.02,2.73,4.48c0,0.01,0.01,0.02,0.01,0.02
			c0.92,1.39,1.9,2.77,2.92,4.11c1.86,2.42,3.9,4.74,6.11,6.95l0.01,0.01l-13,13l-0.77,0.78v-0.01c-35.17-35.19-35.17-92.4,0-127.59
			l0.77,0.78h0.01l11.72,11.72l0.4,0.41h0.01l0.3,0.31l0.56,0.55v0.01c-1.28,1.28-2.5,2.59-3.67,3.94
			c-0.02,0.01-0.02,0.01-0.03,0.03c-1.15,1.35-2.24,2.73-3.28,4.13c-0.35,0.46-0.68,0.94-1.02,1.42c-0.67,0.97-1.31,1.93-1.93,2.92
			c-0.62,0.99-1.21,1.98-1.77,2.99c-0.23,0.43-0.47,0.85-0.69,1.28c-0.33,0.58-0.62,1.18-0.9,1.77c-0.27,0.5-0.51,1.02-0.75,1.54
			c-0.24,0.52-0.48,1.04-0.7,1.57c-0.14,0.3-0.27,0.61-0.4,0.92c-0.12,0.28-0.24,0.58-0.36,0.87c-0.18,0.45-0.36,0.91-0.54,1.37
			c-0.11,0.34-0.24,0.66-0.35,0.99c-0.27,0.74-0.54,1.48-0.77,2.23c-0.35,1.07-0.69,2.16-0.97,3.26c-0.15,0.53-0.3,1.07-0.42,1.62
			c-0.14,0.51-0.26,1.01-0.37,1.51c-0.03,0.07-0.03,0.14-0.04,0.2c-0.07,0.33-0.15,0.66-0.21,0.99c-0.17,0.75-0.31,1.51-0.44,2.28
			c-0.2,1.11-0.35,2.22-0.5,3.34c-0.07,0.56-0.14,1.11-0.2,1.68c-0.05,0.56-0.1,1.11-0.14,1.67c-0.05,0.56-0.09,1.11-0.12,1.68
			C366.8,209.21,366.77,209.78,366.75,210.34z"/>
		<path fill="#4285F4" d="M501.23,276.27l-13.77-13.77c8.74-8.74,14.71-19.22,17.92-30.33c0.1-0.35,0.2-0.69,0.29-1.05
			c0.03-0.12,0.07-0.23,0.1-0.34c0.02-0.07,0.04-0.13,0.05-0.2c0.07-0.22,0.12-0.46,0.18-0.69c0.12-0.46,0.22-0.9,0.33-1.36
			c0.03-0.09,0.05-0.18,0.07-0.28c0.03-0.11,0.05-0.22,0.07-0.33c0.05-0.2,0.1-0.4,0.13-0.61c0.1-0.4,0.18-0.82,0.26-1.22
			c0.03-0.2,0.07-0.41,0.11-0.62c0.04-0.2,0.07-0.4,0.12-0.61c0.03-0.19,0.06-0.38,0.09-0.56c0.05-0.22,0.09-0.46,0.12-0.69
			c0.07-0.4,0.13-0.8,0.19-1.2c0.07-0.52,0.14-1.05,0.2-1.57c0.03-0.27,0.06-0.56,0.09-0.83c0.01-0.03,0.01-0.04,0.01-0.06
			c0.05-0.54,0.11-1.08,0.15-1.61c0.05-0.67,0.1-1.34,0.14-2.01c0.01-0.22,0.02-0.45,0.03-0.68c0.03-0.44,0.03-0.88,0.04-1.32
			c0.01-0.34,0.02-0.67,0.02-1c0.01-0.44,0.01-0.88,0.01-1.33c0-0.56-0.01-1.12-0.03-1.67c-0.01-0.56-0.04-1.14-0.07-1.7
			c-0.03-0.56-0.06-1.12-0.11-1.68l-0.14-1.67c-0.05-0.56-0.12-1.12-0.2-1.68c-0.06-0.56-0.15-1.11-0.22-1.68
			c-0.08-0.54-0.17-1.09-0.27-1.64c0-0.02,0-0.04-0.01-0.05c-0.1-0.54-0.2-1.09-0.3-1.63c-0.22-1.1-0.46-2.2-0.74-3.3
			c-0.12-0.54-0.27-1.07-0.41-1.6c-0.33-1.25-0.71-2.47-1.11-3.69c-0.14-0.41-0.28-0.81-0.42-1.21c-0.18-0.54-0.38-1.07-0.58-1.6
			c-0.39-0.99-0.79-1.98-1.21-2.95c-0.22-0.54-0.46-1.06-0.71-1.58c-0.99-2.13-2.09-4.24-3.3-6.29c-0.57-0.97-1.17-1.91-1.79-2.85
			c-0.32-0.49-0.65-0.97-1-1.46c-0.28-0.41-0.56-0.82-0.87-1.22c-0.41-0.57-0.83-1.15-1.26-1.71c-0.37-0.47-0.73-0.93-1.11-1.39
			c-0.74-0.92-1.52-1.82-2.32-2.71c-0.8-0.88-1.62-1.75-2.48-2.6l13.77-13.77h0.01C536.41,183.85,536.4,241.09,501.23,276.27z"/>
		<linearGradient id="SVGID_7_" gradientUnits="userSpaceOnUse" x1="520.7316" y1="231.5123" x2="473.1091" y2="203.5382">
			<stop  offset="0.3443" style="stop-color:#472421;stop-opacity:0.15"/>
			<stop  offset="0.9043" style="stop-color:#472421;stop-opacity:0.0219"/>
			<stop  offset="1" style="stop-color:#472421;stop-opacity:0"/>
		</linearGradient>
		<path fill="url(#SVGID_7_)" d="M488.31,263.35l-0.86-0.86c8.74-8.74,14.71-19.22,17.92-30.33c0.1-0.35,0.2-0.69,0.29-1.05
			c0.03-0.12,0.07-0.23,0.1-0.34c0.02-0.07,0.04-0.13,0.05-0.2c0.07-0.22,0.12-0.46,0.18-0.69c0.12-0.46,0.22-0.9,0.33-1.36
			c0.03-0.09,0.05-0.18,0.07-0.28c0.03-0.11,0.05-0.22,0.07-0.33c0.05-0.2,0.1-0.4,0.13-0.61c0.1-0.4,0.18-0.82,0.26-1.22
			c0.03-0.2,0.07-0.41,0.11-0.62c0.04-0.2,0.07-0.4,0.12-0.61c0.03-0.19,0.06-0.38,0.09-0.56c0.05-0.22,0.09-0.46,0.12-0.69
			c0.07-0.4,0.13-0.8,0.19-1.2c0.07-0.52,0.14-1.05,0.2-1.57c0.03-0.27,0.06-0.56,0.09-0.83c0.01-0.03,0.01-0.04,0.01-0.06
			c0.05-0.54,0.11-1.08,0.15-1.61c0.05-0.67,0.1-1.34,0.14-2.01c0.01-0.22,0.02-0.45,0.03-0.68c0.03-0.44,0.03-0.88,0.04-1.32
			c0.01-0.34,0.02-0.67,0.02-1c0.01-0.44,0.01-0.88,0.01-1.33c0-0.56-0.01-1.12-0.03-1.67c-0.01-0.56-0.04-1.14-0.07-1.7
			c-0.03-0.56-0.06-1.12-0.11-1.68l-0.14-1.67c-0.05-0.56-0.12-1.12-0.2-1.68c-0.06-0.56-0.15-1.11-0.22-1.68
			c-0.08-0.54-0.17-1.09-0.27-1.64c0-0.02,0-0.04-0.01-0.05c-0.1-0.54-0.2-1.09-0.3-1.63c-0.22-1.1-0.46-2.2-0.74-3.3
			c-0.12-0.54-0.27-1.07-0.41-1.6c-0.33-1.25-0.71-2.47-1.11-3.69c-0.14-0.41-0.28-0.81-0.42-1.21c-0.18-0.54-0.38-1.07-0.58-1.6
			c-0.39-0.99-0.79-1.98-1.21-2.95c-0.22-0.54-0.46-1.06-0.71-1.58c-0.99-2.13-2.09-4.24-3.3-6.29c-0.57-0.97-1.17-1.91-1.79-2.85
			c-0.32-0.49-0.65-0.97-1-1.46c-0.28-0.41-0.56-0.82-0.87-1.22c-0.41-0.57-0.83-1.15-1.26-1.71c-0.37-0.47-0.73-0.93-1.11-1.39
			c-0.74-0.92-1.52-1.82-2.32-2.71c-0.8-0.88-1.62-1.75-2.48-2.6l0.86-0.86C516.37,189.64,516.37,235.3,488.31,263.35z"/>
		<linearGradient id="SVGID_8_" gradientUnits="userSpaceOnUse" x1="450.5699" y1="174.7362" x2="387.3323" y2="111.4987">
			<stop  offset="0.0108" style="stop-color:#FFCECC;stop-opacity:0.02"/>
			<stop  offset="1" style="stop-color:#FFCECC;stop-opacity:0.3"/>
		</linearGradient>
		<path fill="url(#SVGID_8_)" d="M488.3,161.59l-0.85,0.85c-7.32-7.32-15.87-12.71-24.98-16.14c-1.08-0.4-2.15-0.77-3.24-1.14
			c-0.54-0.18-1.1-0.35-1.65-0.5c-13.13-3.88-27.16-3.88-40.31,0c-0.54,0.16-1.09,0.33-1.63,0.5c-1.09,0.36-2.16,0.73-3.24,1.14
			c-1.07,0.4-2.13,0.84-3.19,1.29c-2.11,0.91-4.19,1.93-6.22,3.07c-3.05,1.71-6,3.64-8.82,5.82c-0.47,0.35-0.94,0.74-1.39,1.11
			c-0.93,0.75-1.84,1.54-2.73,2.35c-0.45,0.39-0.89,0.8-1.33,1.22c-0.44,0.42-0.86,0.84-1.31,1.28v0.01l-0.86-0.86h0.01
			C414.6,133.53,460.24,133.53,488.3,161.59z"/>
		<linearGradient id="SVGID_9_" gradientUnits="userSpaceOnUse" x1="358.7938" y1="184.7236" x2="405.8135" y2="231.7432">
			<stop  offset="0.3458" style="stop-color:#FFEFB7;stop-opacity:0.3"/>
			<stop  offset="1" style="stop-color:#FFEFB7;stop-opacity:0"/>
		</linearGradient>
		<path fill="url(#SVGID_9_)" d="M387.4,262.49L387.4,262.49l-0.84,0.86l-0.01,0.01c-28.06-28.05-28.06-73.72,0-101.77l0.86,0.86
			c-1.28,1.28-2.5,2.59-3.67,3.94c-0.02,0.01-0.02,0.01-0.03,0.03c-1.15,1.35-2.24,2.73-3.28,4.13c-0.35,0.46-0.68,0.94-1.02,1.42
			c-0.67,0.97-1.31,1.93-1.93,2.92c-0.62,0.99-1.21,1.98-1.77,2.99c-0.23,0.43-0.47,0.85-0.69,1.28c-0.33,0.58-0.62,1.18-0.9,1.77
			c-0.27,0.5-0.51,1.02-0.75,1.54c-0.24,0.52-0.48,1.04-0.7,1.57c-0.14,0.3-0.27,0.61-0.4,0.92c-0.12,0.28-0.24,0.58-0.36,0.87
			c-0.18,0.45-0.36,0.91-0.54,1.37c-0.11,0.34-0.24,0.66-0.35,0.99c-0.27,0.74-0.54,1.48-0.77,2.23c-0.35,1.07-0.69,2.16-0.97,3.26
			c-0.15,0.53-0.3,1.07-0.42,1.62c-0.14,0.51-0.26,1.01-0.37,1.51c-0.03,0.07-0.03,0.14-0.04,0.2c-0.07,0.33-0.15,0.66-0.21,0.99
			c-0.17,0.75-0.31,1.51-0.44,2.28c-0.2,1.11-0.35,2.22-0.5,3.34c-0.07,0.56-0.14,1.11-0.2,1.68c-0.05,0.56-0.1,1.11-0.14,1.67
			c-0.05,0.56-0.09,1.11-0.12,1.68c-0.03,0.56-0.05,1.14-0.07,1.7c-0.02,0.55-0.03,1.11-0.03,1.67c-0.02,2.43,0.1,4.87,0.32,7.29
			c0.05,0.55,0.12,1.11,0.18,1.67c1.08,9,3.88,17.82,8.4,25.95c0.86,1.52,1.77,3.02,2.73,4.48c0,0.01,0.01,0.02,0.01,0.02
			c0.92,1.39,1.9,2.77,2.92,4.11C383.15,257.96,385.18,260.29,387.4,262.49z"/>
		<linearGradient id="SVGID_10_" gradientUnits="userSpaceOnUse" x1="528.4752" y1="243.0098" x2="490.3244" y2="200.1573">
			<stop  offset="0.3447" style="stop-color:#FFFFFF;stop-opacity:0.3"/>
			<stop  offset="0.5209" style="stop-color:#FDFEFF;stop-opacity:0.2193"/>
			<stop  offset="0.6111" style="stop-color:#F5F9FE;stop-opacity:0.178"/>
			<stop  offset="0.6818" style="stop-color:#E8F1FC;stop-opacity:0.1457"/>
			<stop  offset="0.7423" style="stop-color:#D5E5FA;stop-opacity:0.118"/>
			<stop  offset="0.7964" style="stop-color:#BCD7F7;stop-opacity:0.0932"/>
			<stop  offset="0.8459" style="stop-color:#9EC4F4;stop-opacity:0.0706"/>
			<stop  offset="0.8918" style="stop-color:#7AAFF0;stop-opacity:0.0495"/>
			<stop  offset="0.935" style="stop-color:#5095EB;stop-opacity:0.0297"/>
			<stop  offset="0.9745" style="stop-color:#227AE5;stop-opacity:0.0117"/>
			<stop  offset="1" style="stop-color:#0065E1;stop-opacity:0"/>
		</linearGradient>
		<path fill="url(#SVGID_10_)" d="M501.23,276.27l-0.78-0.78c11.01-11.01,18.53-24.21,22.57-38.22c0.13-0.44,0.25-0.87,0.37-1.32
			c0.04-0.14,0.09-0.28,0.12-0.42c0.03-0.08,0.05-0.17,0.06-0.25c0.08-0.29,0.15-0.58,0.22-0.86c0.15-0.58,0.29-1.15,0.41-1.72
			c0.04-0.12,0.06-0.23,0.09-0.36c0.04-0.14,0.07-0.27,0.09-0.41c0.06-0.26,0.12-0.51,0.17-0.77c0.12-0.51,0.22-1.03,0.31-1.54
			c0.05-0.26,0.1-0.52,0.14-0.78c0.05-0.25,0.1-0.51,0.14-0.77c0.04-0.23,0.08-0.47,0.12-0.71c0.06-0.29,0.11-0.58,0.14-0.88
			c0.1-0.51,0.17-1,0.24-1.51c0.09-0.66,0.17-1.32,0.24-1.98c0.05-0.34,0.09-0.7,0.13-1.04c0.01-0.04,0.01-0.06,0.01-0.08
			c0.07-0.69,0.14-1.36,0.19-2.04c0.07-0.84,0.13-1.69,0.18-2.52c0.01-0.29,0.03-0.57,0.04-0.86c0.04-0.55,0.04-1.11,0.05-1.66
			c0.02-0.42,0.03-0.84,0.03-1.26c0.01-0.55,0.01-1.12,0.01-1.67c0-0.71-0.01-1.41-0.04-2.11c-0.02-0.71-0.05-1.43-0.09-2.14
			c-0.04-0.71-0.08-1.42-0.14-2.12c-0.06-0.71-0.12-1.4-0.18-2.11c-0.07-0.71-0.15-1.41-0.25-2.12c-0.08-0.7-0.19-1.4-0.28-2.11
			c-0.11-0.69-0.21-1.38-0.35-2.07c0-0.02,0-0.04-0.01-0.07c-0.12-0.68-0.25-1.37-0.38-2.05c-0.28-1.38-0.58-2.77-0.94-4.15
			c-0.15-0.68-0.34-1.36-0.52-2.02c-0.42-1.56-0.89-3.1-1.4-4.65c-0.18-0.51-0.36-1.02-0.53-1.53c-0.24-0.67-0.49-1.34-0.73-2.02
			c-0.49-1.25-0.99-2.48-1.53-3.72c-0.29-0.67-0.58-1.33-0.88-1.99c-1.25-2.69-2.64-5.33-4.16-7.92c-0.72-1.21-1.48-2.4-2.26-3.59
			c-0.4-0.61-0.81-1.22-1.25-1.84c-0.35-0.52-0.71-1.03-1.1-1.53c-0.52-0.72-1.05-1.45-1.59-2.15c-0.46-0.59-0.92-1.17-1.4-1.75
			c-0.94-1.15-1.91-2.29-2.93-3.4c-1-1.12-2.05-2.22-3.13-3.29l0.77-0.77h0.01C536.41,183.85,536.4,241.09,501.23,276.27z"/>
		<linearGradient id="SVGID_11_" gradientUnits="userSpaceOnUse" x1="348.2069" y1="179.3457" x2="390.9347" y2="236.0341">
			<stop  offset="0.3458" style="stop-color:#472421;stop-opacity:0.1"/>
			<stop  offset="1" style="stop-color:#472421;stop-opacity:0"/>
		</linearGradient>
		<path fill="url(#SVGID_11_)" d="M371.27,272.21c1.01,1.11,2.05,2.21,3.14,3.28v0.01l-0.78,0.77c-35.17-35.19-35.17-92.41,0-127.59
			l0.78,0.78c-11.01,11.01-18.54,24.21-22.57,38.21c-0.12,0.44-0.25,0.88-0.37,1.32c-0.04,0.14-0.08,0.29-0.12,0.42
			c-0.03,0.09-0.04,0.17-0.06,0.25c-0.08,0.29-0.15,0.58-0.22,0.87c-0.15,0.57-0.29,1.14-0.41,1.71c-0.04,0.13-0.06,0.24-0.08,0.36
			c-0.04,0.14-0.07,0.27-0.1,0.41c-0.05,0.26-0.12,0.51-0.16,0.77c-0.13,0.51-0.22,1.03-0.32,1.54c-0.04,0.26-0.1,0.52-0.14,0.78
			c-0.04,0.25-0.09,0.51-0.14,0.77c-0.04,0.23-0.08,0.47-0.12,0.71c-0.06,0.29-0.11,0.58-0.14,0.88c-0.09,0.51-0.16,1-0.23,1.51
			c-0.1,0.66-0.18,1.32-0.25,1.98c-0.04,0.34-0.08,0.7-0.12,1.04c-0.02,0.04-0.02,0.06-0.02,0.09c-0.06,0.68-0.13,1.36-0.19,2.03
			c-0.07,0.84-0.12,1.69-0.17,2.53c-0.02,0.28-0.03,0.56-0.04,0.85c-0.04,0.55-0.05,1.11-0.06,1.66c-0.01,0.43-0.03,0.84-0.03,1.27
			c-0.01,0.55-0.01,1.11-0.01,1.66c0,0.71,0.01,1.41,0.04,2.11c0.03,0.71,0.06,1.43,0.1,2.14c0.03,0.71,0.08,1.41,0.13,2.11
			c0.06,0.71,0.13,1.4,0.18,2.12c0.07,0.71,0.15,1.4,0.25,2.11c0.08,0.7,0.19,1.4,0.29,2.12c0.11,0.68,0.21,1.37,0.34,2.06
			c0,0.03,0,0.04,0.01,0.07c0.12,0.69,0.25,1.37,0.38,2.05c0.27,1.38,0.57,2.77,0.93,4.15c0.15,0.69,0.34,1.36,0.52,2.02
			c0.43,1.57,0.9,3.1,1.4,4.65c0.18,0.5,0.36,1.01,0.54,1.52c0.23,0.67,0.48,1.35,0.73,2.02c0.48,1.25,0.99,2.49,1.52,3.72
			c0.29,0.67,0.58,1.33,0.88,1.99c1.25,2.7,2.64,5.34,4.17,7.92c0.71,1.21,1.47,2.41,2.25,3.59c0.4,0.62,0.81,1.22,1.25,1.84
			c0.36,0.52,0.71,1.03,1.1,1.54c0.52,0.71,1.05,1.44,1.59,2.14c0.46,0.59,0.93,1.17,1.41,1.75
			C369.28,269.95,370.27,271.09,371.27,272.21z"/>
	</g>
	<g>
		
			<radialGradient id="SVGID_12_" cx="634.08" cy="-3127.9414" r="742.7673" gradientTransform="matrix(0.2438 0 0 -0.2438 219.5761 -615.8282)" gradientUnits="userSpaceOnUse">
			<stop  offset="0" style="stop-color:#FFFFFF;stop-opacity:0.1"/>
			<stop  offset="1" style="stop-color:#FFFFFF;stop-opacity:0"/>
		</radialGradient>
		<circle fill="url(#SVGID_12_)" cx="437.43" cy="212.47" r="90.18"/>
	</g>
	<g>
		<path fill="#5C636A" d="M315.36,383.76c-2.02-1.21-3.59-2.87-4.72-4.97s-1.69-4.47-1.69-7.1c0-2.63,0.56-5.01,1.69-7.13
			c1.13-2.12,2.7-3.78,4.72-4.97c2.02-1.2,4.29-1.79,6.82-1.79c2.84,0,5.22,0.66,7.15,1.97c1.93,1.32,3.31,3.07,4.13,5.25
			l-3.95,1.64c-0.65-1.61-1.61-2.83-2.9-3.67s-2.83-1.26-4.64-1.26c-1.54,0-2.97,0.42-4.31,1.26c-1.33,0.84-2.4,2.01-3.2,3.51
			c-0.8,1.5-1.2,3.23-1.2,5.18c0,1.95,0.4,3.67,1.2,5.18c0.8,1.5,1.87,2.67,3.2,3.51c1.33,0.84,2.77,1.26,4.31,1.26
			c1.85,0,3.43-0.43,4.77-1.28c1.33-0.85,2.32-2.07,2.97-3.64l3.9,1.64c-0.89,2.15-2.32,3.9-4.28,5.23c-1.97,1.33-4.35,2-7.15,2
			C319.65,385.58,317.38,384.97,315.36,383.76z"/>
		<path fill="#5C636A" d="M342.44,383.73c-2.05-1.23-3.65-2.9-4.79-5.02c-1.15-2.12-1.72-4.46-1.72-7.02c0-2.56,0.57-4.9,1.72-7.02
			c1.14-2.12,2.74-3.79,4.79-5.02c2.05-1.23,4.36-1.85,6.92-1.85c2.56,0,4.87,0.62,6.92,1.85s3.65,2.91,4.79,5.02
			s1.72,4.46,1.72,7.02c0,2.56-0.57,4.9-1.72,7.02c-1.15,2.12-2.74,3.79-4.79,5.02s-4.36,1.85-6.92,1.85
			C346.8,385.58,344.49,384.96,342.44,383.73z M353.85,380.42c1.38-0.8,2.49-1.96,3.33-3.46c0.84-1.5,1.26-3.26,1.26-5.28
			c0-2.02-0.42-3.78-1.26-5.28c-0.84-1.5-1.95-2.66-3.33-3.46c-1.38-0.8-2.88-1.2-4.49-1.2c-1.61,0-3.11,0.4-4.51,1.2
			c-1.4,0.8-2.52,1.96-3.36,3.46c-0.84,1.5-1.26,3.26-1.26,5.28c0,2.02,0.42,3.78,1.26,5.28c0.84,1.5,1.96,2.66,3.36,3.46
			c1.4,0.8,2.9,1.21,4.51,1.21C350.97,381.63,352.46,381.23,353.85,380.42z"/>
		<path fill="#5C636A" d="M367.27,358.61h4.15v3.84h0.21c0.75-1.33,1.88-2.44,3.38-3.33c1.5-0.89,3.09-1.33,4.77-1.33
			c1.91,0,3.58,0.46,5,1.38c1.42,0.92,2.44,2.15,3.05,3.69c0.92-1.54,2.14-2.77,3.67-3.69c1.52-0.92,3.29-1.38,5.31-1.38
			c3.01,0,5.27,0.92,6.79,2.74c1.52,1.83,2.28,4.31,2.28,7.46v16.76h-4.31v-16.1c0-2.43-0.5-4.19-1.49-5.28
			c-0.99-1.09-2.46-1.64-4.41-1.64c-1.3,0-2.48,0.38-3.54,1.13c-1.06,0.75-1.89,1.76-2.49,3.03c-0.6,1.26-0.9,2.63-0.9,4.1v14.76
			h-4.36v-16.05c0-2.46-0.5-4.24-1.49-5.33c-0.99-1.09-2.44-1.64-4.36-1.64c-1.3,0-2.48,0.38-3.54,1.15
			c-1.06,0.77-1.89,1.79-2.49,3.08c-0.6,1.28-0.9,2.66-0.9,4.13v14.66h-4.36V358.61z"/>
		<path fill="#5C636A" d="M416.5,383.78c-1.98-1.2-3.53-2.85-4.64-4.95c-1.11-2.1-1.67-4.47-1.67-7.1c0-2.53,0.52-4.85,1.56-6.97
			c1.04-2.12,2.52-3.81,4.43-5.07c1.91-1.26,4.13-1.9,6.66-1.9c2.56,0,4.78,0.57,6.66,1.72c1.88,1.15,3.32,2.73,4.33,4.74
			c1.01,2.02,1.51,4.32,1.51,6.92c0,0.51-0.05,0.96-0.15,1.33h-20.66c0.1,1.98,0.58,3.66,1.44,5.02c0.85,1.37,1.94,2.39,3.26,3.08
			c1.32,0.68,2.69,1.03,4.13,1.03c3.35,0,5.93-1.57,7.74-4.72l3.69,1.79c-1.13,2.12-2.66,3.79-4.59,5.02
			c-1.93,1.23-4.26,1.85-7,1.85C420.72,385.58,418.48,384.98,416.5,383.78z M430.75,368.91c-0.07-1.09-0.38-2.19-0.92-3.28
			c-0.55-1.09-1.41-2.02-2.59-2.77c-1.18-0.75-2.66-1.13-4.43-1.13c-2.05,0-3.79,0.66-5.2,1.97c-1.42,1.32-2.35,3.05-2.79,5.2
			H430.75z"/>
		<path fill="#5C636A" d="M441.94,383.6c-1.88-1.31-3.21-3-4-5.05l3.9-1.74c0.65,1.57,1.61,2.79,2.9,3.64
			c1.28,0.85,2.69,1.28,4.23,1.28c1.64,0,3.04-0.33,4.2-1c1.16-0.67,1.74-1.61,1.74-2.84c0-1.09-0.46-1.97-1.38-2.64
			s-2.38-1.24-4.36-1.72l-3.18-0.82c-2.08-0.51-3.79-1.38-5.13-2.61s-2-2.82-2-4.77c0-1.5,0.45-2.83,1.36-3.97
			c0.9-1.14,2.11-2.03,3.61-2.64c1.5-0.62,3.13-0.92,4.87-0.92c2.29,0,4.33,0.5,6.13,1.49c1.79,0.99,3.07,2.38,3.82,4.15l-3.79,1.74
			c-1.16-2.32-3.23-3.49-6.2-3.49c-1.44,0-2.69,0.33-3.77,1c-1.08,0.67-1.61,1.51-1.61,2.54c0,0.96,0.38,1.74,1.13,2.33
			c0.75,0.6,1.88,1.08,3.38,1.46l3.79,0.97c2.56,0.65,4.49,1.61,5.79,2.9s1.95,2.84,1.95,4.69c0,1.61-0.46,3.02-1.38,4.23
			c-0.92,1.21-2.17,2.15-3.74,2.79c-1.57,0.65-3.32,0.97-5.23,0.97C446.16,385.58,443.82,384.92,441.94,383.6z"/>
		<path fill="#5C636A" d="M471.06,358.61h4.46l6.25,20.66h0.05l6.56-20.66h4.51l6.61,20.61h0.05l6.2-20.61h4.41l-8.46,26.15h-4.41
			l-6.77-20.87l-6.72,20.87h-4.36L471.06,358.61z"/>
		<path fill="#5C636A" d="M513.38,352.92c-0.62-0.62-0.92-1.35-0.92-2.2s0.31-1.58,0.92-2.18s1.35-0.9,2.2-0.9
			c0.85,0,1.59,0.3,2.2,0.9s0.92,1.32,0.92,2.18s-0.3,1.59-0.9,2.2c-0.6,0.62-1.34,0.92-2.23,0.92
			C514.73,353.84,514,353.54,513.38,352.92z M513.43,358.61h4.31v26.15h-4.31V358.61z"/>
		<path fill="#5C636A" d="M530.36,385.06c-0.91-0.35-1.67-0.82-2.28-1.41c-0.68-0.66-1.2-1.43-1.54-2.3
			c-0.34-0.87-0.51-1.93-0.51-3.18v-15.61h-4.56v-3.95h4.56v-7.38h4.36v7.38h6.36v3.95h-6.36v14.57c0,1.47,0.27,2.55,0.82,3.25
			c0.65,0.77,1.59,1.15,2.82,1.15c0.99,0,1.95-0.29,2.87-0.87v4.25c-0.51,0.24-1.03,0.41-1.56,0.51c-0.53,0.1-1.2,0.15-2.02,0.15
			C532.25,385.58,531.27,385.4,530.36,385.06z"/>
		<path fill="#5C636A" d="M540.68,348.05h4.36v10.82l-0.21,3.59h0.21c0.72-1.33,1.85-2.44,3.41-3.33c1.55-0.89,3.26-1.33,5.1-1.33
			c3.18,0,5.6,0.93,7.28,2.79c1.67,1.86,2.51,4.33,2.51,7.41v16.76h-4.36v-16.1c0-2.36-0.6-4.1-1.79-5.23
			c-1.2-1.13-2.75-1.69-4.67-1.69c-1.37,0-2.62,0.41-3.77,1.23c-1.15,0.82-2.05,1.88-2.72,3.18c-0.67,1.3-1,2.65-1,4.05v14.56h-4.36
			V348.05z"/>
	</g>
	<text transform="matrix(1 0 0 1 272.2996 453.011)" fill="#5C636A" font-family="'GoogleSans-Regular'" font-size="57.583px">Google apps</text>
</g>
<g id="Layer_3">
</g>
<g id="Layer_4">
</g>
</svg>
